<?xml version="1.0" encoding="UTF-8" standalone="no"?>
<!DOCTYPE svg PUBLIC "-//W3C//DTD SVG 1.1//EN" "http://www.w3.org/Graphics/SVG/1.1/DTD/svg11.dtd">
<svg xmlns="http://www.w3.org/2000/svg" version="1.1" viewBox="0.00 0.00 300.00 167.00">
<path fill="#0741ad" d="
  M 62.61 0.00
  L 145.02 0.00
  L 145.00 98.82
  Q 145.00 99.35 144.46 99.35
  L 63.13 99.35
  Q 62.53 99.35 62.53 98.75
  L 62.51 66.30
  A 0.45 0.44 90.0 0 1 62.95 65.85
  L 82.76 65.72
  Q 83.25 65.72 83.25 65.24
  L 83.23 62.39
  A 0.65 0.65 0.0 0 0 82.59 61.74
  L 62.98 61.72
  Q 62.50 61.71 62.50 61.23
  L 62.55 38.49
  Q 62.55 37.83 63.22 37.81
  L 82.66 37.31
  A 0.68 0.68 0.0 0 0 83.32 36.58
  L 83.16 34.36
  A 0.78 0.77 -2.0 0 0 82.38 33.64
  L 62.95 33.67
  A 0.46 0.46 0.0 0 1 62.49 33.21
  L 62.61 0.00
  Z"
/>
<path fill="#0741ad" d="
  M 153.37 0.00
  L 235.76 0.00
  L 235.75 32.99
  Q 235.75 33.51 235.24 33.51
  L 216.00 33.50
  Q 215.24 33.50 215.23 34.25
  L 215.19 37.22
  A 0.53 0.53 0.0 0 0 215.72 37.76
  L 235.26 37.76
  Q 235.76 37.76 235.76 38.26
  L 235.77 61.06
  Q 235.77 61.64 235.19 61.64
  L 215.81 61.61
  Q 215.22 61.61 215.22 62.19
  L 215.20 65.29
  A 0.60 0.60 0.0 0 0 215.80 65.89
  L 235.38 65.87
  Q 235.76 65.87 235.76 66.25
  L 235.77 98.99
  Q 235.77 99.36 235.39 99.36
  L 153.83 99.35
  A 0.48 0.47 0.0 0 1 153.35 98.88
  L 153.37 0.00
  Z"
/>
<rect fill="#3590d5" x="0.76" y="115.99" width="42.20" height="24.28" rx="0.35"/>
<path fill="#3590d5" d="
  M 112.88 130.09
  L 112.98 165.91
  A 0.35 0.35 0.0 0 1 112.63 166.26
  L 88.17 166.26
  A 0.35 0.35 0.0 0 1 87.82 165.91
  L 87.83 116.56
  A 0.35 0.35 0.0 0 1 88.35 116.26
  L 112.70 129.78
  A 0.35 0.35 0.0 0 1 112.88 130.09
  Z"
/>
<path fill="#3590d5" d="
  M 139.28 165.95
  L 114.91 152.49
  A 0.33 0.33 0.0 0 1 114.74 152.21
  L 114.73 116.33
  A 0.33 0.33 0.0 0 1 115.06 116.00
  L 139.44 115.99
  A 0.33 0.33 0.0 0 1 139.77 116.32
  L 139.77 165.66
  A 0.33 0.33 0.0 0 1 139.28 165.95
  Z"
/>
<path fill="#3590d5" d="
  M 159.67 115.99
  L 183.77 116.00
  A 0.32 0.32 0.0 0 1 184.07 116.21
  L 202.31 165.83
  A 0.32 0.32 0.0 0 1 202.01 166.26
  L 177.91 166.26
  A 0.32 0.32 0.0 0 1 177.61 166.05
  L 159.37 116.42
  A 0.32 0.32 0.0 0 1 159.67 115.99
  Z"
/>
<rect fill="#3590d5" x="203.44" y="115.99" width="25.04" height="50.28" rx="0.35"/>
<path fill="#3590d5" d="
  M 230.24 116.23
  A 0.27 0.27 0.0 0 1 230.51 115.96
  L 236.28 115.96
  A 19.11 19.04 -90.0 0 1 255.32 135.07
  L 255.32 147.15
  A 19.11 19.04 -90.0 0 1 236.28 166.26
  L 230.51 166.26
  A 0.27 0.27 0.0 0 1 230.24 165.99
  L 230.24 116.23
  Z"
/>
<rect fill="#3590d5" x="257.06" y="116.00" width="42.18" height="24.26" rx="0.40"/>
<path fill="#3590d5" d="
  M 140.87 165.85
  L 157.97 119.20
  A 0.31 0.31 0.0 0 1 158.55 119.20
  L 175.65 165.85
  A 0.31 0.31 0.0 0 1 175.36 166.26
  L 141.16 166.26
  A 0.31 0.31 0.0 0 1 140.87 165.85
  Z"
/>
<rect fill="#3590d5" x="47.46" y="131.62" width="35.92" height="18.94" rx="0.32"/>
<rect fill="#3590d5" x="0.76" y="141.94" width="42.20" height="24.32" rx="0.32"/>
<rect fill="#3590d5" x="257.06" y="141.95" width="42.18" height="24.32" rx="0.29"/>
</svg>
